# xmcd
#
# Track frame offsets:
#	150
#	10625
#	28022
#	39665
#	56545
#	65986
#	82172
#	100768
#	115183
#	125707
#	140324
#	153054
#	162307
#	173366
#	189078
#
# Disc length: 2700 seconds
#
# Revision: 3
# Processed by: cddbd v1.5.2PL0 Copyright (c) Steve Scherf et al.
# Submitted via: EasyCDDAExtractor 12.0.4.1
#
DISCID=bb0a8a0f
DTITLE=Willie Nelson - Moonlight Becomes You
DYEAR=1994
DGENRE=Country
TTITLE0=December Day
TTITLE1=Moonlight Becomes You
TTITLE2=Afraid
TTITLE3=The Heart of a Clown
TTITLE4=Please Don't Talk About Me When I'm Gone
TTITLE5=Everywhere You Go
TTITLE6=Have I Stayed Away Too Long
TTITLE7=Sentimental Journey
TTITLE8=The World is Waiting for The Sunrise
TTITLE9=You'll Never Know
TTITLE10=I'll Keep On Loving You
TTITLE11=You Just Can't Play a Sad Song On a Banjo
TTITLE12=You Always Hurt the One You Love
TTITLE13=Someday (You'll Want Me to Want You)
TTITLE14=In God's Eyes
EXTD=
EXTT0=
EXTT1=
EXTT2=
EXTT3=
EXTT4=
EXTT5=
EXTT6=
EXTT7=
EXTT8=
EXTT9=
EXTT10=
EXTT11=
EXTT12=
EXTT13=
EXTT14=
PLAYORDER=
